# xmcd CD database file
#
# Track frame offsets:
#	150
#	114557
#	221444
#
# Disc length: 4061 seconds
#
# Revision: 3
# Processed by: cddbd v1.5.2PL0 Copyright (c) Steve Scherf et al.
# Submitted via: CDex 1.70beta3
#
DISCID=230fdb03
DTITLE=十代目　金原亭馬生 - 「落語～昭和の名人決定版」　[十代目]金原亭馬生(弐)
DYEAR=2008
DGENRE=Comedy
TTITLE0=首ったけ
TTITLE1=佐野山
TTITLE2=初天神
EXTD=YEAR: 2008
EXTT0=
EXTT1=
EXTT2=
PLAYORDER=
